<?xml version="1.0" standalone="no"?>
<!DOCTYPE svg PUBLIC "-//W3C//DTD SVG 20010904//EN"
 "http://www.w3.org/TR/2001/REC-SVG-20010904/DTD/svg10.dtd">
<svg version="1.0" xmlns="http://www.w3.org/2000/svg"
 width="532.000000pt" height="197.000000pt" viewBox="0 0 532.000000 197.000000"
 preserveAspectRatio="xMidYMid meet">

<g transform="translate(0.000000,197.000000) scale(0.100000,-0.100000)"
fill="#000000" stroke="none">
<path d="M28 1819 c-29 -16 -21 -59 28 -144 81 -142 156 -237 304 -385 189
-190 350 -310 606 -453 415 -232 724 -305 1239 -294 367 8 555 46 770 155 69
35 107 63 166 122 l75 76 120 -63 c183 -95 298 -128 729 -208 509 -93 679
-148 885 -286 50 -33 90 -64 90 -69 0 -4 -19 -4 -42 2 -117 26 -380 78 -398
78 -11 0 -27 -11 -36 -25 -15 -22 -15 -28 -2 -48 14 -19 56 -30 364 -93 l348
-71 23 23 c15 15 21 29 16 41 -10 27 -322 553 -350 591 -13 17 -32 32 -43 32
-24 0 -50 -26 -50 -50 0 -10 43 -90 95 -179 53 -88 98 -167 101 -176 3 -8 -25
6 -62 31 -212 142 -460 220 -999 314 -352 61 -538 121 -702 226 -49 31 -52 35
-43 59 6 15 10 68 9 118 0 104 -21 174 -76 251 -77 109 -190 115 -266 14 -83
-109 -41 -245 117 -381 39 -33 72 -66 74 -73 2 -7 -24 -40 -57 -73 -102 -102
-278 -174 -531 -216 -131 -23 -507 -31 -663 -16 -248 25 -384 60 -602 154
-496 214 -915 559 -1120 924 -24 43 -49 84 -55 91 -13 14 -39 15 -62 1z m3073
-471 c43 -48 69 -126 69 -208 0 -52 -3 -70 -13 -70 -19 0 -144 132 -157 164
-16 42 -12 85 11 117 27 38 53 37 90 -3z"/>
</g>
</svg>
